<svg width="20" height="20" viewBox="0 0 20 20" fill="none" xmlns="http://www.w3.org/2000/svg">
<path d="M19.6017 10.2282C19.6025 9.54678 19.5449 8.86653 19.4295 8.19495H9.99922V12.0462H15.4004C15.2899 12.6613 15.056 13.2477 14.7127 13.7699C14.3695 14.2922 13.9241 14.7395 13.4033 15.085V17.5849H16.6268C18.5142 15.8447 19.6017 13.2712 19.6017 10.2282Z" fill="#4471FF"/>
<path d="M9.99927 19.9999C12.6978 19.9999 14.9699 19.1138 16.6268 17.5861L13.4033 15.0862C12.5061 15.6945 11.3506 16.0417 9.99927 16.0417C7.39102 16.0417 5.17721 14.2834 4.38557 11.9141H1.06484V14.4904C1.89713 16.1465 3.17335 17.5388 4.75103 18.5117C6.3287 19.4846 8.14574 19.9998 9.99927 19.9999Z" fill="#4471FF"/>
<path d="M4.38551 11.9141C3.967 10.6725 3.967 9.328 4.38551 8.08644V5.51013H1.06479C0.364638 6.90336 0 8.44101 0 10.0003C0 11.5595 0.364638 13.0972 1.06479 14.4904L4.38551 11.9141Z" fill="#4471FF"/>
<path d="M9.99927 3.95886C11.4253 3.93556 12.8033 4.47437 13.8353 5.45881L16.6893 2.60474C14.8795 0.904898 12.482 -0.0283417 9.99927 0.000656072C8.14574 0.000740549 6.3287 0.515993 4.75103 1.48889C3.17335 2.46178 1.89713 3.85403 1.06484 5.5102L4.38557 8.0865C5.17721 5.71713 7.39102 3.95886 9.99927 3.95886Z" fill="#4471FF"/>
</svg>
