<svg width="20" height="20" viewBox="0 0 20 20" fill="none" xmlns="http://www.w3.org/2000/svg">
<g clip-path="url(#clip0_4_551)">
<path d="M10.5862 10.5855V0C4.91614 0.29741 0.298127 4.91538 0.000717163 10.5855H10.5862ZM8.24257 8.82776H7.07074V7.65594H8.24257V8.82776ZM4.72709 5.31228H5.89891V6.48411H4.72709V5.31228ZM7.65665 5.06967L8.48517 5.8982L5.313 9.07037L4.48448 8.24185L7.65665 5.06967Z" fill="#FF82AC"/>
<path d="M10.586 11.7573H3.57739C3.86293 15.4914 6.85198 18.4804 10.5861 18.766V11.7573H10.586Z" fill="#FF82AC"/>
<path d="M11.7577 2.34367C11.7577 2.46952 11.7577 20.1375 11.7577 19.9992C16.3306 19.6955 19.9995 15.7615 19.9995 11.1129C19.9995 6.46393 16.3317 2.64635 11.7577 2.34367ZM15.2732 10.5855C16.2424 10.5855 17.0309 11.374 17.0309 12.3433C17.0309 13.1061 16.5396 13.7504 15.8591 13.9931V15.2728H14.6872V13.9931C14.0067 13.7504 13.5154 13.1061 13.5154 12.3433H14.6872C14.6872 12.6665 14.9499 12.9292 15.2732 12.9292C15.5964 12.9292 15.8591 12.6665 15.8591 12.3433C15.8591 12.02 15.5964 11.7573 15.2732 11.7573C14.3039 11.7573 13.5154 10.9689 13.5154 9.9996C13.5154 9.23674 14.0067 8.59247 14.6872 8.34979V7.07003H15.8591V8.34979C16.5396 8.59247 17.0309 9.23674 17.0309 9.9996H15.8591C15.8591 9.67633 15.5964 9.41369 15.2732 9.41369C14.9499 9.41369 14.6872 9.67633 14.6872 9.9996C14.6872 10.3229 14.9499 10.5855 15.2732 10.5855Z" fill="#FF82AC"/>
</g>
<defs>
<clipPath id="clip0_4_551">
<rect width="20" height="20" fill="white"/>
</clipPath>
</defs>
</svg>
