<svg width="20" height="20" viewBox="0 0 20 20" fill="none" xmlns="http://www.w3.org/2000/svg">
<g clip-path="url(#clip0_4_564)">
<path d="M19.8175 3.9334L16.0676 0.183516C15.8888 0.00477173 15.6201 -0.0489766 15.3863 0.0485204C15.1526 0.146017 15.0001 0.37226 15.0001 0.624752V2.49969H6.87536C3.07798 2.49969 0.000579834 5.5771 0.000579834 9.37448C0.000579834 9.71947 0.280571 9.99946 0.62556 9.99946H3.12548C3.47047 9.99946 3.75046 9.71947 3.75046 9.37448C3.75046 7.64828 5.14917 6.24958 6.87536 6.24958H15.0001V8.12452C15.0001 8.37701 15.1526 8.60575 15.3863 8.702C15.6201 8.7995 15.8888 8.74575 16.0676 8.567L19.8175 4.81712C20.0612 4.57338 20.0612 4.17714 19.8175 3.9334Z" fill="#396AFF"/>
<path d="M19.3747 9.99946H16.8748C16.5298 9.99946 16.2498 10.2795 16.2498 10.6244C16.2498 12.3506 14.8511 13.7494 13.1249 13.7494H5.00016V11.8744C5.00016 11.6219 4.84766 11.3932 4.61392 11.2969C4.38018 11.2007 4.11268 11.2544 3.93269 11.4332L0.182807 15.1831C-0.0609356 15.4268 -0.0609356 15.823 0.182807 16.0668L3.93269 19.8167C4.11143 19.9954 4.38018 20.0492 4.61392 19.9517C4.84766 19.8542 5.00016 19.6267 5.00016 19.3742V17.4992H13.1249C16.9223 17.4992 19.9997 14.4218 19.9997 10.6244C19.9997 10.2795 19.7197 9.99946 19.3747 9.99946Z" fill="#396AFF"/>
</g>
<defs>
<clipPath id="clip0_4_564">
<rect width="20" height="20" fill="white"/>
</clipPath>
</defs>
</svg>
