<svg width="21" height="20" viewBox="0 0 21 20" fill="none" xmlns="http://www.w3.org/2000/svg">
<path d="M10.044 20L12.854 4.19667C15.5324 4.19667 16.3772 4.49037 16.4992 5.68917C16.4992 5.68917 18.2959 5.01924 19.2021 3.65862C15.6658 2.01998 12.1127 1.94607 12.1127 1.94607L10.0393 4.47136L10.044 4.47104L7.97069 1.94568C7.97069 1.94568 4.41745 2.01966 0.881638 3.6583C1.78706 5.01892 3.58451 5.68886 3.58451 5.68886C3.7072 4.48998 4.55099 4.19627 7.21141 4.19437L10.044 20Z" fill="#FFBB38"/>
<path d="M10.0429 1.21662C12.9014 1.19476 16.1734 1.65884 19.5229 3.11871C19.9706 2.31293 20.0857 1.95682 20.0857 1.95682C16.4242 0.508194 12.9952 0.0124355 10.0425 0C7.08984 0.0124355 3.66104 0.508273 0 1.95682C0 1.95682 0.163325 2.39547 0.562372 3.11871C3.91126 1.65884 7.18378 1.19476 10.0425 1.21662H10.0429Z" fill="#FFBB38"/>
</svg>
